<svg xmlns="http://www.w3.org/2000/svg" viewBox="0 0 4680 3120" id="website-under-construction"><g data-name="20"><rect width="4680" height="3120" fill="#fff" data-name="10" opacity="0"></rect><path fill="#ffd7be" d="M2283.83,403.82c-154.18-62.66-556.89,29.08-724,149.7-67.57,48.76-22.61,119.07,45.61,166.91,86.8,60.87,266.85,135.83,409.67,90.09C2248.93,735.64,2485.08,485.61,2283.83,403.82Z"></path><path fill="#ffd7be" d="M3914.53,1402.92c10.88-24.93,15-51.25,20.64-76.27q3.82-16.92,6.83-33.58c.56-2.94,1.09-5.9,1.59-8.84.32-1.81.62-3.63.92-5.47,10-60.57,12.62-118.66,8.77-174.1-10.48-150.16-68.75-281-158-389.33-177.24-215.15-476.65-341.52-766.83-354.25q-17.43-.76-34.85-1Q2988,360,2982.3,360q-8.91,0-17.77.1-46.83.69-92.79,5.46h0c-11.23,1.14-22.41,2.52-33.51,4.07q-13.62,1.88-27.09,4.17-19.68,3.3-39,7.41c-5.56,1.2-11.08,2.43-16.6,3.71-56.67,13.18-111.08,31.71-162,55.8q-28.71,13.57-55.89,29.53a651.43,651.43,0,0,0-80.77,55.94,600.07,600.07,0,0,0-108.8,115,774.52,774.52,0,0,1-189.47,184.95c-5.51,3.81-11.07,7.52-16.62,11.16q-15.27,10-30.72,19.1c-202.62,119.83-384-18.6-481.29-52.59-472.32-165.05-759.62,68.76-909.48,393.81-2.4,5.19-43.15,120.19-44.27,125.73C504,2173.75,834.68,2438.49,1027,2519.55c71.68,30.24,124.14,34.94,124.14,34.94,111.68,4,222.73,15.07,332.39,31.48H3828.87c36.26-19.18,70.23-41.2,101-66.42,162.39-133.26,234-355.72,75.41-718.87C3954.86,1685.31,3820.47,1618.72,3914.53,1402.92Z"></path><path fill="#62a4a1" d="M647,2067.75c-72-28.23-155-36.69-225.88-5.93-7.19,3.11-14.53,6.88-18.91,13.37-5,7.4-5.24,16.95-4.76,25.87,3.46,65.35,36.08,127,81.85,173.78s103.94,79.82,164.46,104.74c95.27,39.24,196.06,59.25,296.22,82.12,65.62,0,132.62,41.39,188.27,70.41C1000.23,2334.35,871.15,2155.68,647,2067.75Z"></path><path fill="#498981" d="M956.24,2401.2q-13.18-12.3-26.63-24.38-13.73-11.7-27.62-23.29c-4.71-3.75-9.47-7.44-14.21-11.15s-9.49-7.43-14.28-11.1a1044.25,1044.25,0,0,0-121.45-78.57A1048.69,1048.69,0,0,0,621,2191.52c-5.64-2.12-11.32-4.15-17-6.22s-11.32-4.12-17-6.12q-17.18-5.66-34.4-11c-11.59-3.29-23.18-6.54-34.79-9.64q-17.55-4.24-35.19-8,16.62,7.11,33.29,13.73c11,4.75,22,9.35,33.07,13.92q16.39,7.24,32.81,14.3c5.41,2.52,10.84,5,16.26,7.44s10.84,4.94,16.28,7.35q64.8,30,127.17,64.52t122.18,73.56c4.92,3.33,9.9,6.6,14.86,9.89s9.93,6.59,14.94,9.83q14.67,10.2,29.54,20.22,14.58,10.38,29.36,20.63,14.46,10.62,29.31,20.91Q969.17,2413.83,956.24,2401.2Z"></path><path fill="#62a4a1" d="M948.92,1944.11C833.49,1796.41,568.11,1549.84,363.66,1673c-53,32-12.46,77.68,24.23,121.22,100.48,119.22,277,158.74,396.62,260,125,105.82,227.94,234.67,333.55,359.05,6.17,7.26,13.12,15,22.5,16.64,25.35,4.5,42.49-36.73,67.53-30.76-63.33-132.79-127.27-266.59-210.08-387.77Q974.54,1977,948.92,1944.11Z"></path><path fill="#498981" d="M843.79,1959.49c-56.89-55.22-119.13-105.31-186.62-147.13a900.17,900.17,0,0,0-104.88-55.91q-13.63-5.88-27.3-11.66c-9.23-3.58-18.45-7.15-27.69-10.63l-28-9.59c-9.48-2.8-18.91-5.67-28.38-8.38a1097.86,1097.86,0,0,1,207,110.49c64.66,43.81,124.71,94,180.73,148.43s108.08,113,157.19,174,95.23,124.71,140.4,189.31A1687.53,1687.53,0,0,0,999.38,2138.7C952.38,2075.14,900.72,2014.74,843.79,1959.49Z"></path><path fill="#62a4a1" d="M965.2,1439.07c-28.94-24-62.23-44.63-99.39-50.57s-78.67,5.26-101.65,35c-21.6,28-23.47,66.61-18.08,101.56,21.25,138,137.07,261,233.09,366,12.54,13.7,24.74,27.09,36.34,40.17,112.43,126.64,157.32,328.21,183.39,493.42,18.84-207.33,21.51-401.2-29.5-605.27C1134.39,1677.24,1077.84,1532.61,965.2,1439.07Z"></path><path fill="#498981" d="M1161.78,2094.63c-.64-7.71-1.36-15.41-2-23.13l-2.72-23.07A860.7,860.7,0,0,0,1139.7,1957a918.85,918.85,0,0,0-159.79-334.4,863.67,863.67,0,0,0-60.23-70.9l-16.24-16.62L886.75,1519q-8.55-7.86-17.17-15.6c-5.9-5-11.73-10.06-17.67-15,5.07,5.83,10.25,11.53,15.36,17.29s10.05,11.67,15.11,17.45l14.79,17.67,14.47,17.89q28.61,36,54.42,73.9a1200.6,1200.6,0,0,1,91.14,158.46,1203.27,1203.27,0,0,1,66,170.48q13.29,43.86,23.29,88.77l4.84,22.49,4.45,22.61c1.32,7.57,2.7,15.14,4.09,22.72s2.45,15.2,3.81,22.82c-.09-7.72-.36-15.44-.54-23.17C1162.7,2110.07,1162.27,2102.35,1161.78,2094.63Z"></path><path fill="#62a4a1" d="M1442.07,1731.75c-35.49,5.45-65.09,29.73-89.79,55.78-78.79,83.11-123.59,185.91-142.46,294.91-23.48,135.7-6.77,281,34.58,409.92,66.34-231.64,189.8-431.82,272.29-656.38,6.4-17.42,12.37-36,8.92-54.23C1518.93,1746.48,1477.55,1726.29,1442.07,1731.75Z"></path><path fill="#498981" d="M1417.57,1830.14c-4,4.9-8,9.86-11.93,14.8l-11.51,15.16a725.24,725.24,0,0,0-41.86,63.67,782.3,782.3,0,0,0-99,287.15,729.76,729.76,0,0,0-6.31,75.94l-.29,19c.08,6.34.13,12.68.26,19s.52,12.66.82,19c.5,6.32.91,12.63,1.49,18.93.68-6.3,1.19-12.59,1.78-18.87s1.33-12.53,1.94-18.79c.77-6.25,1.46-12.5,2.18-18.73l2.43-18.67q5.13-37.26,12.53-74A1118.26,1118.26,0,0,1,1367.32,1932q16.77-33.5,35.75-66l9.59-16.19c3.28-5.36,6.59-10.7,9.83-16.09s6.72-10.64,10.06-16,6.88-10.57,10.22-16c-4.34,4.59-8.55,9.31-12.85,14Q1423.73,1822.9,1417.57,1830.14Z"></path><path fill="#62a4a1" d="M4205.4,2197.91c-59.84-25.95-129.89-18.81-190.61,5-189.18,74.2-298.11,225-406.1,391.86,47-24.49,103.5-59.42,158.87-59.42,84.52-19.3,169.57-36.18,250-69.3,51.06-21,100.15-48.91,138.77-88.39s66.16-91.49,69.08-146.64c.4-7.52.2-15.59-4-21.83C4217.66,2203.72,4211.46,2200.54,4205.4,2197.91Z"></path><path fill="#498981" d="M4094.41,2287.63q-14.52,4.57-29,9.32c-4.79,1.69-9.57,3.43-14.35,5.17s-9.56,3.45-14.33,5.24a889,889,0,0,0-213.08,117.94c-4,3.09-8,6.24-12.05,9.37s-8,6.24-12,9.41q-11.73,9.75-23.31,19.65Q3765,2474,3753.8,2484.31q-10.89,10.65-21.47,21.58,12.52-8.67,24.74-17.64,12.48-8.61,24.77-17.41,12.52-8.48,24.93-17.06c4.22-2.73,8.41-5.52,12.6-8.29s8.39-5.54,12.54-8.35q50.51-32.89,103.1-62.07t107.31-54.45c4.6-2,9.16-4.13,13.74-6.2s9.16-4.15,13.72-6.28q13.86-5.92,27.69-12.07c9.31-3.85,18.62-7.74,27.91-11.74q14.07-5.6,28.08-11.59-14.86,3.16-29.69,6.75C4114,2282.11,4104.2,2284.85,4094.41,2287.63Z"></path><path fill="#62a4a1" d="M4253.85,1869.81C4081.32,1765.88,3857.39,1974,3760,2098.59q-21.66,27.73-41.42,56.75c-69.88,102.26-123.84,215.17-177.28,327.23,21.13-5,35.59,29.75,57,25.95,7.92-1.41,13.78-7.91,19-14,89.12-105,175.94-213.69,281.46-303,101-85.44,249.91-118.79,334.7-219.4C4264.37,1935.36,4298.6,1896.77,4253.85,1869.81Z"></path><path fill="#498981" d="M3848.69,2111.56c-48,46.63-91.63,97.6-131.29,151.24a1423.49,1423.49,0,0,0-107,168.57c38.11-54.51,77-108.24,118.48-159.75s85.36-100.95,132.64-146.88,98-88.28,152.51-125.25a941.38,941.38,0,0,1,84.63-51.19,924.12,924.12,0,0,1,90-42c-64.2,17.63-125.6,45.92-182.5,81.15S3896.7,2065,3848.69,2111.56Z"></path><path fill="#62a4a1" d="M3830.11,1629.74c-31.35,5-59.44,22.39-83.87,42.67-95,78.93-142.77,201-172.31,320.94-43,172.21-40.8,335.81-24.9,510.76,22-139.41,59.88-309.51,154.75-416.38,9.8-11,20.09-22.33,30.67-33.89,81-88.55,178.76-192.39,196.7-308.82,4.54-29.5,3-62.08-15.26-85.71C3896.5,1634.18,3861.46,1624.73,3830.11,1629.74Z"></path><path fill="#498981" d="M3733.83,1827.3A775.55,775.55,0,0,0,3599,2109.48c-12.46,50.9-19.75,103.08-20.22,155.21,8.11-51.46,19.19-102,34.16-151.39a1011.78,1011.78,0,0,1,132.58-277.58c29-42.66,61.38-83.06,96.33-121.69C3801.6,1747.17,3765.6,1785.62,3733.83,1827.3Z"></path><path fill="#62a4a1" d="M3419.6,1966.46c-20.84-22-45.82-42.47-75.76-47.07s-64.86,12.43-70.5,42.19c-2.91,15.39,2.13,31.06,7.52,45.76,69.62,189.5,173.8,358.42,229.78,553.89,34.9-108.77,49-231.4,29.18-345.91C3523.9,2123.34,3486.09,2036.59,3419.6,1966.46Z"></path><path fill="#498981" d="M3506.69,2355.73c-.53-5.33-1.13-10.66-1.71-16s-1.15-10.67-1.79-16a659.83,659.83,0,0,0-83.58-242.31c-2.78-4.59-5.63-9.15-8.45-13.71s-5.65-9.12-8.51-13.64q-9.12-13.27-18.36-26.39-9.84-12.72-19.78-25.28-10.5-12.15-21.27-24,8.43,13.65,17.12,27,8.1,13.74,16.38,27.24,7.73,13.89,15.54,27.63l7.29,14c2.44,4.67,4.87,9.35,7.35,14A944.3,944.3,0,0,1,3489,2326.13c.91,5.18,1.89,10.36,2.85,15.54s1.91,10.37,2.92,15.56q2.29,15.64,4.8,31.33c1.23,10.5,2.5,21,3.89,31.56q1.37,15.84,3.14,31.78,1.18-15.95,1.95-32c.08-10.67.05-21.37,0-32.09Q3507.69,2371.8,3506.69,2355.73Z"></path><ellipse cx="2361.04" cy="2637.74" fill="#992e2e" rx="1162.77" ry="122.26"></ellipse><ellipse cx="2381.49" cy="2533.6" fill="#992e2e" rx="1720.4" ry="128.17"></ellipse><rect width="2072.02" height="1453.17" x="1313.93" y="1058.1" fill="#231c61" rx="105.6"></rect><rect width="2033.68" height="1414.83" x="1333.1" y="1077.27" fill="#161310" rx="86.43"></rect><path fill="#545454" d="M3236.32,1180.4a61.58,61.58,0,0,0-29.81-7.58H1493.4c-32.55,0-58.93,24.72-58.93,55.19v1035.9a53,53,0,0,0,15.1,36.88,60.54,60.54,0,0,0,43.83,18.32H3206.51c32.54,0,58.91-24.71,58.91-55.2V1228C3265.42,1207.73,3253.73,1190,3236.32,1180.4Z"></path><path fill="#ffefd0" d="M3220.1,1209.77a28.24,28.24,0,0,0-13.59-3.4H1493.4c-14,0-25.38,9.71-25.38,21.64v1035.9a19.44,19.44,0,0,0,5.7,13.58l.07.09a27.18,27.18,0,0,0,19.61,8H3206.51c14,0,25.35-9.71,25.35-21.65V1228C3231.86,1220.65,3227.48,1213.84,3220.1,1209.77Z"></path><path fill="#ffefeb" d="M1468 1228v526.15l547.08-547.79H1493.4C1479.4 1206.37 1468 1216.08 1468 1228zM3220.1 1209.77a28.24 28.24 0 00-13.59-3.4H2822.44c-189.05 181.26-870.32 851-1102.31 1079.19h763.6l748.13-799.71V1228C3231.86 1220.65 3227.48 1213.84 3220.1 1209.77z"></path><path fill="#161310" d="M1086.2,2447.37c0,19.46,12.57,37.46,33.89,52.1,32.52,22.36,85.44,36.9,145.19,36.9H3367.1c59.75,0,112.68-14.54,145.19-36.9,15.11-10.38,25.82-22.43,30.77-35.51a46.3,46.3,0,0,0,3.11-16.59v-3.91h-2460Z"></path><path fill="#545454" d="M1167.7,2454.13c32.51,22.36,85.43,36.91,145.18,36.91H3414.7c50.55,0,96.2-10.41,128.74-27.15a46.3,46.3,0,0,0,3.11-16.59v-3.91H1154.28A109.76,109.76,0,0,0,1167.7,2454.13Z"></path><path fill="#8a8a8a" d="M1388.75 2465.55a25.89 25.89 0 1025.88 25.88A25.89 25.89 0 001388.75 2465.55zM1480.18 2465.55a25.89 25.89 0 1025.89 25.88A25.88 25.88 0 001480.18 2465.55zM2170.47 2444.7c0 14.18 9.5 25.68 21.21 25.68h304.75c11.71 0 21.2-11.5 21.2-25.68v-1.8H2170.47z"></path><polygon fill="#161310" points="789.65 793.34 800.32 805.53 1107.86 506.74 1097.18 494.54 789.65 793.34"></polygon><polygon fill="#161310" points="1099.63 508.35 1818.44 807.15 1824.22 791.72 1105.41 492.92 1099.63 508.35"></polygon><rect width="148.82" height="16.59" x="1028.11" y="1981.6" fill="#545454"></rect><polygon fill="#545454" points="1022.32 2154.21 1033.9 2165.46 1182.72 1995.52 1171.14 1984.27 1022.32 2154.21"></polygon><polygon fill="#545454" points="1022.32 1995.52 1171.14 2165.46 1182.72 2154.21 1033.9 1984.27 1022.32 1995.52"></polygon><rect width="148.82" height="16.59" x="1028.11" y="1811.66" fill="#545454"></rect><polygon fill="#545454" points="1022.32 1984.27 1033.9 1995.52 1182.72 1825.57 1171.14 1814.33 1022.32 1984.27"></polygon><polygon fill="#545454" points="1022.32 1825.57 1171.14 1995.52 1182.72 1984.27 1033.9 1814.33 1022.32 1825.57"></polygon><rect width="148.82" height="16.59" x="1028.11" y="1641.71" fill="#545454"></rect><polygon fill="#545454" points="1022.32 1814.33 1033.9 1825.57 1182.72 1655.63 1171.14 1644.38 1022.32 1814.33"></polygon><polygon fill="#545454" points="1022.32 1655.63 1171.14 1825.57 1182.72 1814.33 1033.9 1644.38 1022.32 1655.63"></polygon><rect width="148.82" height="16.59" x="1028.11" y="1471.77" fill="#545454"></rect><polygon fill="#545454" points="1022.32 1644.38 1033.9 1655.63 1182.72 1485.68 1171.14 1474.44 1022.32 1644.38"></polygon><polygon fill="#545454" points="1022.32 1485.68 1171.14 1655.63 1182.72 1644.38 1033.9 1474.44 1022.32 1485.68"></polygon><rect width="148.82" height="16.59" x="1028.11" y="1287.78" fill="#545454"></rect><polygon fill="#545454" points="1022.32 1460.39 1033.9 1471.64 1182.72 1301.69 1171.14 1290.45 1022.32 1460.39"></polygon><polygon fill="#545454" points="1022.32 1301.69 1171.14 1471.64 1182.72 1460.39 1033.9 1290.45 1022.32 1301.69"></polygon><rect width="148.82" height="16.59" x="1028.11" y="1117.83" fill="#545454"></rect><polygon fill="#545454" points="1022.32 1290.45 1033.9 1301.69 1182.72 1131.75 1171.14 1120.5 1022.32 1290.45"></polygon><polygon fill="#545454" points="1022.32 1131.75 1171.14 1301.69 1182.72 1290.45 1033.9 1120.5 1022.32 1131.75"></polygon><rect width="148.82" height="16.59" x="1028.11" y="621.2" fill="#545454"></rect><polygon fill="#545454" points="1022.32 793.81 1033.9 805.06 1182.72 635.12 1171.14 623.87 1022.32 793.81"></polygon><polygon fill="#545454" points="1022.32 635.12 1171.14 805.06 1182.72 793.81 1033.9 623.87 1022.32 635.12"></polygon><rect width="148.82" height="16.59" x="1028.11" y="947.89" fill="#195c6c"></rect><polygon fill="#545454" points="1022.32 1120.5 1033.9 1131.75 1182.72 961.81 1171.14 950.56 1022.32 1120.5"></polygon><polygon fill="#545454" points="1022.32 961.81 1171.14 1131.75 1182.72 1120.5 1033.9 950.56 1022.32 961.81"></polygon><rect width="15.75" height="156.75" x="1330.4" y="799.44" fill="#545454"></rect><polygon fill="#545454" points="1171.59 805.53 1332.94 962.28 1343.62 950.09 1182.27 793.34 1171.59 805.53"></polygon><polygon fill="#545454" points="1171.59 950.09 1182.27 962.28 1343.62 805.53 1332.94 793.34 1171.59 950.09"></polygon><rect width="15.75" height="156.75" x="836.98" y="799.44" fill="#545454"></rect><polygon fill="#545454" points="839.52 805.53 1000.87 962.28 1011.55 950.09 850.2 793.34 839.52 805.53"></polygon><polygon fill="#545454" points="839.52 950.09 850.2 962.28 1011.55 805.53 1000.87 793.34 839.52 950.09"></polygon><rect width="15.75" height="156.75" x="1491.26" y="799.44" fill="#545454"></rect><polygon fill="#545454" points="1332.44 805.53 1493.79 962.28 1504.47 950.09 1343.12 793.34 1332.44 805.53"></polygon><polygon fill="#545454" points="1332.44 950.09 1343.12 962.28 1504.47 805.53 1493.79 793.34 1332.44 950.09"></polygon><rect width="15.75" height="156.75" x="1652.6" y="799.44" fill="#545454"></rect><polygon fill="#545454" points="1493.79 805.53 1655.14 962.28 1665.82 950.09 1504.47 793.34 1493.79 805.53"></polygon><polygon fill="#545454" points="1493.79 950.09 1504.47 962.28 1665.82 805.53 1655.14 793.34 1493.79 950.09"></polygon><rect width="15.75" height="156.75" x="1813.46" y="799.44" fill="#545454"></rect><polygon fill="#545454" points="1654.65 805.53 1815.99 962.28 1826.67 950.09 1665.32 793.34 1654.65 805.53"></polygon><polygon fill="#545454" points="1654.65 950.09 1665.32 962.28 1826.67 805.53 1815.99 793.34 1654.65 950.09"></polygon><rect width="15.75" height="156.75" x="1974.81" y="799.44" fill="#545454"></rect><polygon fill="#545454" points="1815.99 805.53 1977.34 962.28 1988.02 950.09 1826.67 793.34 1815.99 805.53"></polygon><polygon fill="#545454" points="1815.99 950.09 1826.67 962.28 1988.02 805.53 1977.34 793.34 1815.99 950.09"></polygon><rect width="15.75" height="156.75" x="2135.66" y="799.44" fill="#545454"></rect><polygon fill="#545454" points="1976.85 805.53 2138.19 962.28 2148.88 950.09 1987.53 793.34 1976.85 805.53"></polygon><polygon fill="#545454" points="1976.85 950.09 1987.53 962.28 2148.88 805.53 2138.19 793.34 1976.85 950.09"></polygon><path fill="#161310" d="M1109.13,496.14a7.66,7.66,0,0,0-13.23,0l-74.4,121.29a8.58,8.58,0,0,0-1.27,4.51v1537.9a8.09,8.09,0,0,0,7.88,8.29h148.82a8.08,8.08,0,0,0,7.87-8.29V621.94a8.66,8.66,0,0,0-1.26-4.51Zm59.92,1655.4H1036V624.38l66.54-108.46,66.53,108.46Z"></path><path fill="#161310" d="M2337.82,949.64,2146.66,792.89a7.67,7.67,0,0,0-4.84-1.75H864.4a8.09,8.09,0,0,0-7.87,8.3V956.18a8.09,8.09,0,0,0,7.87,8.3H2333a7.92,7.92,0,0,0,7.45-5.6A8.57,8.57,0,0,0,2337.82,949.64ZM872.28,947.89V807.73H2139.12L2310,947.89Z"></path><path fill="#8f8f8f" d="M1202,760.37H1003a12,12,0,0,0-12,12V983.23a12,12,0,0,0,12,12h199a12,12,0,0,0,12-12V772.4A12,12,0,0,0,1202,760.37Z"></path><rect width="69.42" height="156.75" x="794.99" y="799.44" fill="#8f8f8f"></rect><path fill="#8f8f8f" d="M787.11,964.48h85.17V791.14H787.11Zm15.75-156.75h53.67V947.89H802.86Z"></path><rect width="283.06" height="317.92" x="960.99" y="2243.28" fill="#a3a3a3"></rect><path fill="#8f8f8f" d="M1070.61,2454.39c-42.13-32.87-41.17-166.23-39.59-211.11H961V2561.2h283.06v-90C1196.29,2476.86,1107.05,2482.81,1070.61,2454.39Z"></path><polygon fill="#b8b8b8" points="960.99 2243.28 1102.41 2243.28 1102.41 2165.46 1022.65 2165.46 960.99 2243.28"></polygon><polygon fill="#b8b8b8" points="1100.76 2165.46 1100.76 2243.28 1242.18 2243.28 1180.52 2165.46 1100.76 2165.46"></polygon><path fill="#a3a3a3" d="M1202,760.37h-50.07c4.59,41,11.12,136.41-24.15,157.57-29.55,17.73-95,11.5-136.77,5v60.24a12,12,0,0,0,12,12h199a12,12,0,0,0,12-12V772.4A12,12,0,0,0,1202,760.37Z"></path><path d="M2364.78 1190.91a9.1 9.1 0 10-17.22 5.92L2439.18 1463a9.11 9.11 0 008.61 6.14 9.29 9.29 0 003-.49 9.13 9.13 0 005.65-11.58zM2297.85 1154.93a9.11 9.11 0 00-12.74 1.9l-178.68 241.34a9.11 9.11 0 0014.64 10.83l178.68-241.33A9.11 9.11 0 002297.85 1154.93z"></path><path fill="#f48400" d="M2345.79,1280.66a60.57,60.57,0,0,0-84.89-11.32L2019.46,1454a60.56,60.56,0,0,0-11.32,84.89l184.64,241.44a60.55,60.55,0,0,0,84.88,11.32L2519.11,1607a60.55,60.55,0,0,0,11.31-84.88Z"></path><path fill="#fff" d="M2335.8,1323.09h0a54.47,54.47,0,0,0-76.37-10.18L2061.89,1464a54.49,54.49,0,0,0-10.19,76.37l151.07,197.54a54.52,54.52,0,0,0,76.36,10.19L2476.68,1597a54.46,54.46,0,0,0,10.18-76.36Zm152,236.53a44.29,44.29,0,0,1-17.12,29.55l-197.55,151.06a44.66,44.66,0,0,1-62.54-8.34l-151.06-197.54a44.62,44.62,0,0,1,8.34-62.54l197.54-151.07a44.62,44.62,0,0,1,62.54,8.34L2479,1526.63A44.27,44.27,0,0,1,2487.81,1559.62Z"></path><path fill="#fff" d="M2230.56 1613.33c-4.78 35.85 49.61 43.1 54.39 7.25C2289.77 1584.42 2235.38 1577.17 2230.56 1613.33zM2241.26 1564.89L2287 1571l26.58-150.38-61.6-6.68C2245.18 1464.93 2245.51 1514.87 2241.26 1564.89z"></path><circle cx="2330.03" cy="1139.7" r="76.6" fill="#8f8f8f" transform="rotate(-67.5 2330.028 1139.7)"></circle><path fill="#b8b8b8" d="M2330,1085.54a54.17,54.17,0,1,0,54.16,54.16A54.16,54.16,0,0,0,2330,1085.54Z"></path><path d="M2330,946.74a9.11,9.11,0,0,0-9.11,9.1V1139.7a9.11,9.11,0,1,0,18.21,0V955.84A9.1,9.1,0,0,0,2330,946.74Z"></path><path fill="#f19a6d" d="M3234.36,1231l-79.23-140.78-47.31,13.36s51.68,255.22,127.24,270.48c92,18.58,187.5-178,187.5-178,2.93-50.88-67.5-180.43-67.5-180.43Z"></path><path fill="#5360a6" d="M3355.62,1005.74,3247.93,1175s19.84,35.83,44.05,72.92c16.95,26,36,52.58,52,67.92v-6.71s35.89-129.75,26.75-234.95C3368.54,1049.29,3363.87,1025.82,3355.62,1005.74Z"></path><path fill="#ef7c59" d="M3235,1232.59a1.54,1.54,0,0,0-3.07,0,378.77,378.77,0,0,0,3.25,50.48c.26,1.93,3.33,2,3.07,0A377.11,377.11,0,0,1,3235,1232.59Z"></path><path fill="#ef7c59" d="M3235,1249.3c-1.11-1.63-3.76-.09-2.65,1.54l12.63,18.5c1.11,1.62,3.76.08,2.65-1.55Z"></path><path fill="#2d3e88" d="M3357.82,1048.25s-34.41,34.41-37.74,93.25c-2.51,44.44-6.29,73.69-28.1,106.39,16.95,26,36,52.58,52,67.92v-6.71s35.89-129.75,26.75-234.95C3363,1058.35,3357.82,1048.25,3357.82,1048.25Z"></path><polygon fill="#f19a6d" points="3617.65 2496.56 3673.76 2492.09 3673.76 2347.64 3590.18 2360.96 3617.65 2496.56"></polygon><path fill="#e84b4b" d="M3716.47,1526.08s-172-56.2-208.9,0-6.07,330.08-2.79,437.78,41,388.2,66.64,430c18.76,30.64,80.48,37.45,119.54-11.6,58-72.85,27.18-338.08,19-443S3716.47,1526.08,3716.47,1526.08Z"></path><path fill="#78bfff" d="M3679.21,2389.36a136.52,136.52,0,0,1-86.65,19.4c-2.26-.25-2.24,3.28,0,3.53a139.61,139.61,0,0,0,88.43-19.88C3682.93,2391.22,3681.15,2388.17,3679.21,2389.36Z"></path><path fill="#e84b4b" d="M3590.18,2387s0,37.68,3.9,40.23,76.42,7,86.75-5.74.55-41.18.55-41.18Z"></path><polygon fill="#f19a6d" points="3367.63 2491.01 3423.73 2486.54 3423.73 2347.64 3340.16 2360.96 3367.63 2491.01"></polygon><path fill="#e84b4b" d="M3360.64,1492.12c-26.55,26.33-98.27,368.12-104.4,447.1s33.59,348.48,47,394.32c20.23,69.38,68,103.16,118,68.2,10.45-7.31,21-17.61,31.42-31.21,48.77-63.61-30.95-382-14.48-415.23,21.06-42.43,39.47-105,54.66-169.45,30.3-128.63,47.76-265,47.76-265S3387.21,1465.79,3360.64,1492.12Z"></path><path fill="#78bfff" d="M3430.21,2391.79a150.33,150.33,0,0,1-88.54,6c-2.21-.52-3.16,2.88-.94,3.4a153.81,153.81,0,0,0,90.42-6C3433.25,2394.4,3432.34,2391,3430.21,2391.79Z"></path><path fill="#e84b4b" d="M3340.16,2389s-3.89,35.12,0,37.68,80.32,9.58,90.64-3.19.55-41.18.55-41.18Z"></path><path fill="#b91f1f" d="M3386,1950.33s77.76,355.22,35.25,451.41c10.45-7.31,21-17.61,31.42-31.21,48.77-63.61-30.95-382-14.48-415.23,21.06-42.43,39.47-105,54.66-169.45l.07-1.16-50.23-83.52Z"></path><path fill="#1a6b36" d="M3478.4,915.42h0l0-.08S3478.43,915.36,3478.4,915.42Z"></path><path fill="#5360a6" d="M3725.73,1243.27c.59-41.09.76-99.35-1.58-149-2.21-47-6.65-86.31-15.09-96.1-19-22.07-73.61-51.23-121.09-71.39-1.39-.57-2.77-1.16-4.14-1.73-.76-.32-1.53-.65-2.3-1-8.12-3.35-16-6.41-23.32-9.09l-78.13,19.64s-4.37,2.26-11.47,6l-2,1.06L3464,943c-30.35,16-94.26,50.33-108.38,62.7-18.69,16.37-19.76,87.52-10.23,143.51,3,17.69,3.28,38.85,2.23,59.51h0c-2.77,23.5-5.84,51-9.55,81a2.12,2.12,0,0,0,0,.24c-.69,3.79-1.11,5.92-1.11,5.92l.34.19c-8.18,65.15-19.46,140.92-37.43,211.09-2.55,9.93,18.33,21,51.07,30.14l3,.81a513.21,513.21,0,0,0,61.65,12.17l3.06.42q5.57.75,11.26,1.4a603,603,0,0,0,69.19,4.07l3.18,0c11.53-.08,22.93-.56,34-1.48,23.83-2,45.1-2.89,64-3.14l3.11,0c36-.35,63.32,1.59,83.42,2.5,1.06.06,2.11.09,3.13.14,17.54.71,29.25.43,36.24-3.31,31.83-17,.08-307.53.08-307.53Z"></path><path fill="#2d3e88" d="M3725.73,1243.27c.59-41.09.76-99.35-1.58-149-27.3-25.87-64-58.9-64-58.9s-42.23,73.54-29.72,121.27c3.94,15,14.84,44.72,27.17,80.43,7.17,20.71,14.81,43.43,21.86,66.47,19.44,63.53,34.36,129.44,22.16,162.1-19.22,51.48-188.38,80.83-271.71,86.5a603,603,0,0,0,69.19,4.07l3.18,0c11.53-.08,22.93-.56,34-1.48,23.83-2,45.1-2.89,64-3.14l3.11,0c36-.35,63.32,1.59,83.42,2.5,1.06.06,2.11.09,3.13.14,17.54.71,29.25.43,36.24-3.31,31.83-17,.08-307.53.08-307.53Z"></path><path fill="#7c2411" d="M3480.08,934.62s-4.36,2.26-11.47,6c-.64.34-1.31.7-2,1L3464,943c-1.9,7.62-8.64,13-6.4,21.54,3.73,14.32,28,24.27,54.57,16.72,43.64-12.41,61.34-42.68,69.37-57.21-8.12-3.36-16-6.42-23.32-9.1Z"></path><path fill="#f19a6d" d="M3855.9,1155.68c-21.73-30.67-48.19-61.19-79.22-85.58l-84.75,116.42s29.35,21.69,51.55,44c11,11,20.29,22.22,23.34,30.94,7.22,20.65-201.91,148.24-201.91,148.24l18.45,67.39s352.65-141.79,333.13-204C3910.94,1255.37,3897.52,1214.42,3855.9,1155.68Z"></path><path fill="#ef7c59" d="M3776.68,1070.1l-84.75,116.42s29.35,21.69,51.55,44c38.56-22.12,96.85-64.34,112.42-74.79C3834.17,1125,3807.71,1094.49,3776.68,1070.1Z"></path><path fill="#78bfff" d="M3688.79,1634.19a212.08,212.08,0,0,1-62.79-71.33c-.94-1.74-3.59-.19-2.65,1.54a215.3,215.3,0,0,0,63.9,72.43C3688.85,1638,3690.38,1635.33,3688.79,1634.19Z"></path><path fill="#5360a6" d="M3665,965.12s-40.49,75.39-21.94,159.35c16.86,76.31,67.28,106.49,67.28,106.49l127.67-121C3804.67,1060.92,3740.52,989.88,3665,965.12Z"></path><path fill="#f19a6d" d="M3466.13,872.32l1,19.53,1.48,27.9L3470.9,962C3533.57,989,3569,920.56,3569,920.56c-7.3-36.21-8-61.54-15.95-95.71Z"></path><path fill="#ef7c59" d="M3469.82,941.71c10.69.63,49.66-19.49,68.63-68.67l-71.28,18.81Z"></path><path fill="#ffe26e" fill-rule="evenodd" d="M3423.88,2442.09s-22.25,5.19-40.66,6-26.07-2.34-26.07-2.34-7.18.3-8.36,2.75,3.05,25.18,3.05,25.18l19.15,39.69,58.73-25.58,1-15.69s1.55-21.69.24-25.81S3423.88,2442.09,3423.88,2442.09Z"></path><path fill="#fc0" fill-rule="evenodd" d="M3439.78,2517.91c-2.5-17.38-9-45.83-9-45.83-46.76,20.69-78.91,1.58-78.91,1.58s-22.58,36.21-57.59,48.63c-.48.19-1,.35-1.47.51s-1,.33-1.49.48c-1,.31-2,.6-3,.87-.53.14-1,.28-1.54.43s-.91.25-1.35.39l-.09,0-1.36.42c-1,.33-2,.66-3,1l-1,.37c-1.25.48-2.44,1-3.57,1.48l-.81.37-.52.25-1,.49c-.31.15-.61.31-.9.47l-.78.42c-1.39.77-2.67,1.57-3.85,2.38l-.65.46c-.49.36-.95.7-1.4,1.07l-.58.46c-.38.31-.75.63-1.1.94l-.52.48-.56.54-.42.42-.47.48a28.79,28.79,0,0,0-2.77,3.41c-.12.16-.23.33-.34.49-.22.33-.43.66-.62,1,0,0,0,0,0,0-.18.32-.36.63-.53,1a26.1,26.1,0,0,0-2.24,5.44c-.07.25-.14.5-.2.74s-.07.3-.11.45q-.32,1.37-.48,2.64l0,.21,0,.22v.09l0,.13,0,.21,0,.22,0,.21,0,.21,0,.2v.42h0l0,.4v.2c0,.13,0,.26,0,.38h0v.39h0v1.44l0,.34v.17l0,.33,0,.16v.12l0,.5a2.11,2.11,0,0,0,0,.25l0,.33v.13l0,.2c0,.06,0,.11,0,.17v.31a1.49,1.49,0,0,0,0,.21v.12l0,.11v.22l0,.1v.1l0,.09s0,.08,0,.12,0,.08,0,.12v.21l0,.07v.28a6.08,6.08,0,0,0,1.46,3v0h0c.56.64,9,9.87,37.5,10.8l1.4,0h2.75c.87,0,1.79,0,2.76-.07l.35,0,.73,0h.07c1.39-.07,2.85-.15,4.38-.25h.13l.41,0,.41,0,1.23-.09.42,0,1.2-.09.92-.08.86-.07h.08l.81-.07h.14c39.32-3.32,110.82-15,123.53-17.08h0l.49-.08.3,0,1.13-.18a.76.76,0,0,0,.09-.09,1.42,1.42,0,0,0,.19-.24c.91-1.43,1.6-6.24,1.8-12.87.06-1.74.07-3.61,0-5.58A165.35,165.35,0,0,0,3439.78,2517.91Z"></path><path fill="#fff" d="M3332 2493.6a2.6 2.6 0 00.84 5.14c.62-.09 15.36-2.19 25 14.08a2.61 2.61 0 002.25 1.28 2.55 2.55 0 001.32-.36 2.61 2.61 0 00.92-3.57C3350.77 2490.73 3332.71 2493.48 3332 2493.6zM3316.24 2505.64a2.61 2.61 0 001 5.11c.53-.1 13.12-2.44 18.75 8.22a2.62 2.62 0 002.31 1.39 2.53 2.53 0 001.21-.31 2.61 2.61 0 001.09-3.52C3334.65 2505.23 3322.06 2504.46 3316.24 2505.64z"></path><path fill="#f48400" fill-rule="evenodd" d="M3318.46,2561.29a60.74,60.74,0,0,0-4.61-16.8,50,50,0,0,0-19.6-22.2l-1.47.51-1.49.48c-1,.31-2,.6-3,.87-.53.14-1,.28-1.54.43s-.91.25-1.35.39l-.09,0-1.36.42c-1,.33-2,.66-3,1l-1,.37c-1.25.48-2.44,1-3.57,1.48l-.81.37-.52.25-1,.49c-.31.15-.61.31-.9.47l-.78.42c-1.39.77-2.67,1.57-3.85,2.38l-.65.46c-.49.36-.95.7-1.4,1.07l-.58.46c-.38.31-.75.63-1.1.94l-.52.48-.56.54-.42.42-.47.48a28.79,28.79,0,0,0-2.77,3.41c-.12.16-.23.33-.34.49-.22.33-.43.66-.62,1,0,0,0,0,0,0-.18.32-.36.63-.53,1a26.1,26.1,0,0,0-2.24,5.44c-.07.25-.14.5-.2.74s-.07.3-.11.45q-.32,1.37-.48,2.64l0,.21,0,.22v.09l0,.13,0,.21,0,.22,0,.21,0,.21,0,.2v.42h0l0,.4v.4l0,.18h0v.38h0v1.44l0,.34v.17l0,.33,0,.16v.12l0,.65v.1l0,.33v.13l0,.2v.45l0,.18v.18l0,.11v.22l0,.1v.1l0,.09v.45l0,.07v.28a6.08,6.08,0,0,0,1.46,3v0h0c.56.64,9,9.87,37.5,10.8l1.4,0h3.45l.67,0h.34l.35,0h.7l.35,0h.36l.37,0h.45l.65,0,.37,0,.38,0h.39l.38,0,.39,0,.39,0,.39,0,.4,0,.39,0,.41,0,.41,0,1.23-.09.42,0,1.2-.09h.06l.86-.07.43,0,.51,0,.33,0,.62,0,.74-.07.45,0,.91-.09.45,0,.45-.05.47,0,.46,0h.05l.41-.05.46,0,.47,0c37.16-3.73,105.77-14.59,118.21-16.57h0l.49-.08.3,0,1.13-.18a.76.76,0,0,0,.09-.09,1.42,1.42,0,0,0,.19-.24c.91-1.43,1.6-6.24,1.8-12.87.06-1.74.07-3.61,0-5.58C3412.59,2550.89,3348.34,2558.19,3318.46,2561.29Z"></path><path fill="#ffe26e" fill-rule="evenodd" d="M3605.36,2441.31c-1.61.74,2.11,24.48,2.11,24.48s4.31,20.39,7.65,23.36,50.56-3.34,50.56-3.34l11.58-22s1.73-19.16-.13-22.25S3607,2440.57,3605.36,2441.31Z"></path><path fill="#fc0" fill-rule="evenodd" d="M3671.05,2475c-1.23.5-50,2.7-53.44,1.72s-10.14-10.89-10.14-10.89-17.06,45.73-19.28,61.8-2.48,44,8.9,50.43,68.71,7.16,79.35,4.44,20.89-14,20.76-32.5c-.12-18.1-12.39-66.68-19.94-86.15C3677.26,2463.81,3672.29,2474.47,3671.05,2475Z"></path><path fill="#f48400" fill-rule="evenodd" d="M3682.94,2565.28c2-67.91-90.88-51.25-85.28-2.42a17.46,17.46,0,0,1-1.76-.46c-3.71-1.27-6.56-5-8.64-9,.83,11,3.57,21.07,9.83,24.61,11.37,6.42,68.71,7.16,79.35,4.44,9.14-2.33,18-11,20.23-25.15A26,26,0,0,1,3682.94,2565.28Z"></path><path fill="#fff" d="M3667.43 2510.86c-1.08-.54-26.82-12.9-54.32.51a2.61 2.61 0 002.29 4.69c25.14-12.27 49.49-.65 49.74-.53a2.6 2.6 0 002.29-4.67zM3663.15 2497.48c-.89-.57-21.9-13.83-47.82.56a2.6 2.6 0 001.27 4.88 2.5 2.5 0 001.26-.33c23.08-12.8 41.65-1.25 42.46-.73a2.61 2.61 0 002.83-4.38z"></path><path fill="#8f8f8f" d="M3862.88,1625.08c0-.47,0-.94-.05-1.41,0-.64-.06-1.28-.1-1.93s-.07-1.28-.11-1.92c-.1-1.47-.21-3-.35-4.43-.06-.74-.13-1.49-.21-2.24,0-.05,0-.11,0-.17-.08-.75-.16-1.51-.26-2.27-.27-2.33-.6-4.67-1-7-.12-.77-.25-1.55-.38-2.33s-.28-1.54-.43-2.32c-.29-1.54-.61-3.08-.94-4.62q-.75-3.46-1.66-6.9c-.39-1.52-.81-3-1.26-4.56-.59-2-1.21-4-1.87-6a169.84,169.84,0,0,0-7-17.58c-.32-.69-.64-1.37-1-2.06-.66-1.35-1.33-2.72-2-4.07q-2.08-4.07-4.39-8c-.78-1.32-1.56-2.64-2.38-3.94s-1.63-2.61-2.48-3.89q-2.55-3.87-5.32-7.63c-1.38-1.87-2.82-3.73-4.29-5.56q-4.44-5.51-9.39-10.71a170.36,170.36,0,0,0-186.6-40.73,59.29,59.29,0,0,0-6.34-8.11l-49.63-51.59L3149.15,972l-.72-.67-.38-.36c1.09-2.35,2.12-4.74,3.1-7.13.24-.59.49-1.2.72-1.8s.47-1.2.71-1.81.45-1.21.68-1.81.43-1.21.65-1.82q.56-1.58,1.08-3.15c0-.07.05-.15.08-.22.33-1,.65-2,1-3l0-.07a170.25,170.25,0,0,0-173.77-220.6c-21.24,1.38-31.1,27.07-16.43,42.49l51.49,54.12a36.66,36.66,0,0,1-1.29,51.84l-45.18,43a36.66,36.66,0,0,1-51.83-1.29l-51.49-54.09a25.18,25.18,0,0,0-43.21,13.9c0,.11,0,.22,0,.34s0,0,0,.06c-.14,1.25-.28,2.51-.38,3.77s-.23,2.56-.32,3.85l-.12,1.92c0,.64-.08,1.28-.1,1.92s-.07,1.29-.08,1.93-.05,1.28-.06,1.93c0,1.14-.05,2.29-.06,3.43,0,.18,0,.37,0,.55,0,1.88,0,3.77.09,5.66,0,.64,0,1.28.07,1.93l.09,1.93q.26,4.81.79,9.62.63,5.76,1.66,11.47.69,3.81,1.54,7.59c.17.75.34,1.49.53,2.23.12.52.25,1,.38,1.55q1.17,4.71,2.64,9.36c.19.62.39,1.24.59,1.86a168.67,168.67,0,0,0,7.31,18.62l1,2.06c.65,1.36,1.32,2.71,2,4.07h0c1.72,3.37,3.58,6.71,5.56,10,1.18,2,2.41,3.93,3.68,5.86s2.58,3.85,4,5.74a173.44,173.44,0,0,0,15.06,18.16,170.39,170.39,0,0,0,184.31,41.68c.54.62,1.07,1.29,1.69,2l44.42,46.18,429.55,446.55a55.46,55.46,0,0,0,7.78,6.74,170.34,170.34,0,0,0,31.44,188.41q1.11,1.17,2.25,2.31l.68.68c.77.78,1.55,1.54,2.33,2.29s1.78,1.69,2.68,2.52c.62.58,1.25,1.15,1.88,1.71l.39.34a170,170,0,0,0,124.36,42.67c21.24-1.39,31.1-27.08,16.43-42.5l-51.48-54.1a36.67,36.67,0,0,1,1.28-51.84l45.19-43a36.67,36.67,0,0,1,51.84,1.28l42.08,44.22,9.4,9.88c14.64,15.39,40.72,6.87,43.24-14.2a.43.43,0,0,0,0-.11c.14-1.25.27-2.51.39-3.76l.15-1.69c.25-2.88.41-5.77.5-8.66,0-.66,0-1.32.05-2l0-1.5c0-.53,0-1.06,0-1.59,0-1.43,0-2.85-.05-4.27C3862.92,1626.44,3862.91,1625.76,3862.88,1625.08Z"></path><path fill="#b8b8b8" d="M3137.07 919c-25.83 40.17-70.29 67.72-115.23 82-21.59 6.87-45.51 11.15-67.2 2.32-22.45-9.18-41.42-24.95-56.55-43.78a295.49 295.49 0 01-52.75-101.45 24.83 24.83 0 00-21 21.43c0 .11 0 .22 0 .34-.15 1.27-.28 2.55-.4 3.83s-.23 2.56-.32 3.85l-.12 1.92c0 .64-.08 1.28-.1 1.92s-.07 1.29-.08 1.93-.05 1.28-.06 1.93c0 1.14-.05 2.29-.06 3.43 0 .18 0 .37 0 .55 0 1.89 0 3.77.09 5.66 0 .64 0 1.28.07 1.93l.09 1.93c.18 3.21.44 6.41.79 9.62q.63 5.74 1.66 11.47c.46 2.54 1 5.07 1.54 7.59.17.75.34 1.49.53 2.23.12.52.25 1 .38 1.55q1.18 4.71 2.64 9.36c.19.62.39 1.24.59 1.86a168.67 168.67 0 007.31 18.62l1 2.06q1 2 2 4.07h0c1.74 3.37 3.59 6.71 5.56 10 1.18 2 2.41 3.93 3.68 5.86s2.59 3.84 4 5.74a173.44 173.44 0 0015.06 18.16 170.39 170.39 0 00184.31 41.68c.54.62 1.07 1.29 1.69 2l44.79 47.1c-.12-.31-.25-.61-.37-.92-1.63-4-3.16-8.08-4.4-12.28-15.55-52.22 15.15-91.24 52.67-122.75l-.35-.35-.38-.36c1.09-2.35 2.12-4.74 3.1-7.13.24-.59.49-1.2.72-1.8s.47-1.2.71-1.81.45-1.21.68-1.81.43-1.21.65-1.82a171 171 0 002.73-105.82C3156.28 874.58 3150.57 898 3137.07 919zM3862.88 1625.08c0-.47 0-.94-.05-1.41 0-.64-.06-1.28-.1-1.93s-.07-1.28-.11-1.92c-.1-1.47-.21-3-.35-4.43-.06-.74-.13-1.49-.21-2.24 0-.05 0-.11 0-.17-.08-.75-.16-1.51-.26-2.27q-.41-3.49-1-7c-.12-.77-.25-1.55-.38-2.33s-.28-1.54-.43-2.32c-.29-1.54-.61-3.08-.94-4.62q-.77-3.45-1.66-6.9-.6-2.28-1.26-4.56a170.47 170.47 0 00-8.83-23.56c-.32-.69-.64-1.37-1-2.06-.66-1.35-1.33-2.72-2-4.07q-2.08-4.07-4.39-8-1.15-2-2.38-3.94t-2.48-3.89q-2.55-3.87-5.32-7.63-2.09-2.8-4.29-5.56-4.44-5.51-9.39-10.71a170.36 170.36 0 00-186.6-40.73 59.29 59.29 0 00-6.34-8.11l-50.23-52.77.6 1.18c3.7 7.26 7.09 14.65 10 22.12 9.18 23.36 14.38 51.63 4.25 75.6-9.8 23.24-29.36 38-51.47 48 .52.39 1 .83 1.54 1.21a170.34 170.34 0 0031.44 188.41q1.11 1.17 2.25 2.31l.68.68c.77.78 1.55 1.54 2.33 2.29a170.28 170.28 0 0041.15 29.16 316.44 316.44 0 01-32.68-48.58c-19.51-36.18-30.44-79.44-14.14-119 9.05-21.93 23.77-40.94 41.65-56.47 19.39-16.84 41.61-33.19 67.31-38.43 42.08-8.63 88.43 7.21 115.3 41.23 22.28 28.2 27.14 62 16.06 93.44l9.4 9.88c14.64 15.39 40.72 6.87 43.24-14.2a.43.43 0 000-.11c.14-1.25.27-2.51.39-3.76l.15-1.69c.25-2.88.41-5.77.5-8.66 0-.66 0-1.32.05-2l0-1.5c0-.53 0-1.06 0-1.59 0-1.43 0-2.85-.05-4.27C3862.92 1626.44 3862.91 1625.76 3862.88 1625.08z"></path><path fill="#b8b8b8" d="M3146,1031c-6.41-6.7-18.2-5.84-26.42,2s-9.67,19.58-3.29,26.28l423.93,440.12c6.39,6.7,18.21,5.83,26.43-2s9.64-19.55,3.26-26.25Z"></path><path fill="#f19a6d" d="M3594.39,1399.65l-63.53-12.47-34.61-6.54a16.51,16.51,0,0,0-8.67.69l-25.44,9.2s2,12.17,15.93,12l16.46-.57,19.42,7.24.18,3.82s-69.8,54.83-71.3,63.35,6.26,11.14,9,11,6.13-2.75,6.13-2.75,1.35,11.1,16.66,12.27c0,0-2.22,15.9,15.61,12.86,0,0,9,6.11,19,4s58.57-22.44,63.34-25.13l54.87-30.72,11.08-8.84-34.91-52.32Z"></path><path fill="#ef7c59" d="M3476.54 1472.72c-11.1 7.27-20.63 12.33-20.29 13.06s10.51-3.36 21.79-10.75 19.57-14.29 19.18-14.86S3487.61 1465.38 3476.54 1472.72zM3505.27 1480.22c-3.45 1.53-7.79 4.23-12.8 6.63s-9.71 4.59-13 6.46-5.09 3.31-4.91 3.63 2.33-.51 5.76-1.87 8.17-3.25 13.32-5.74a125.85 125.85 0 0012.53-7.4c3.09-2 5-3.06 5-3.4S3508.66 1478.6 3505.27 1480.22zM3525.84 1493.82c-4.59 0-10.46 2.34-16.34 5.18-11.92 5.56-21.33 10.63-21 11.32s10.25-3.26 22.18-8.82c5.93-2.86 11.23-5.24 15.34-5.74s6.63.32 6.78-.12C3533 1495.4 3530.46 1493.67 3525.84 1493.82z"></path><path fill="#f19a6d" d="M3138.7,1101a12.49,12.49,0,0,0-5,3.51,57.48,57.48,0,0,0-16.33,39.76c0,6.29,1.66,13.52,7.27,16.39L3131,1157c2-2.55,7.87-6.81,8.66-9.94,3.29-13.16-1.44-12.61,6.82-35.45.81-2.24,1.7-6-1.33-8.87A7.48,7.48,0,0,0,3138.7,1101Z"></path><path fill="#f19a6d" d="M3158.3,1110.6c-2.74-.86-5.86.34-8.38,2.51a31.38,31.38,0,0,0-6.31,8.3,88.75,88.75,0,0,0-11.69,40.51c-.1,3.28,0,6.72,1.49,9.24s4.6,3.61,6.77,1.5l3,2.23,15.66-34c2.46-5.31,5-10.85,5.47-16.74S3162.7,1112,3158.3,1110.6Z"></path><path fill="#f19a6d" d="M3174.26,1128.74c-2.93,1-5.17,3.3-7.28,5.53-6.06,6.39-12.08,13-15.68,21s-10.54,14.44-6.29,22.1l9.36,9.43a388.48,388.48,0,0,0,27-47.34c1.26-2.63,2.49-5.75,1.1-8.33S3177.19,1127.73,3174.26,1128.74Z"></path><path fill="#f19a6d" d="M3182.89,1145c-2.93,1-5.17,3.3-7.28,5.52-6.05,6.4-12.08,13-15.68,21s-10.54,14.44-6.29,22.1L3163,1203a389.23,389.23,0,0,0,27-47.34c1.26-2.63,2.49-5.76,1.11-8.33S3185.82,1144,3182.89,1145Z"></path><path fill="#00184c" d="M3597,688.05c-12.54-25.17-38.79-19.51-38.79-19.51-2.56-21.21-26.78-30.88-56.8-19.09s-44.77-4.88-81.17.67-51,50.38-34.56,77.41,62.3,15.75,62.3,15.75l30,96.61,86.28-21.63c22.26-6.24,35.57-28.19,29.73-49a36.2,36.2,0,0,0-3.93-9C3602.38,738.2,3605.62,705.45,3597,688.05Z"></path><path fill="#f19a6d" d="M3500.17,673.33c-52.15-1-81.85,19.22-90,73.91-.42,2.77-.64,5.55-.91,8.33-1.27,13.13-1.51,29,2.87,35.71,0,0-17.86,70.06,43.07,119.28,6.94,5.61,35.44-2.09,43.33-4.89,66.47-23.66,48.66-98,48.66-98,.87-4.78,26-10.22,26.78-15.14C3581.34,745.27,3563.89,674.53,3500.17,673.33Z"></path><path fill="#ef7c59" d="M3411.62 790.43c.16.29.32.59.49.85 0 0-10.32 40.64 11.65 81.76 9.06-11.26 13.61-27.1 11.19-43.77S3423.58 798.62 3411.62 790.43zM3566.07 797.94c-6.87-7.55-16-11.65-25.31-10.3-17 2.48-28.25 22.12-25.08 43.86 2.55 17.5 13.65 31 26.76 34.34 11.92-28 4.73-58.15 4.73-58.15C3547.73 804.61 3558.37 801.25 3566.07 797.94z"></path><path fill="#9e4c23" d="M3511.26 761a76.5 76.5 0 00-10.85-3.34c-7-1.47-15.81-3.24-18-.31-1.47 2-1.21 5.58.53 7.79 2.95 3.75 8.34 1.2 21.85 2.85 6.33.77 9 1.8 9.43.86C3515 767.22 3518.41 764.05 3511.26 761zM3425.62 763.56a26.76 26.76 0 00-7.31 4.08c-5.24 3.48-3.43 6.53-2.75 7.91.4.8 2.34-.39 7.09-1.72 10.12-2.84 14.34-1.08 16.36-4.76 1.19-2.17 1.19-5.44 0-7.07C3437.3 759.75 3430.33 762 3425.62 763.56z"></path><path fill="#38261f" d="M3497 785.56c-2.23-.25-4.36 2.39-4.75 5.88s1.1 6.54 3.34 6.79 4.35-2.39 4.74-5.89S3499.25 785.81 3497 785.56zM3433.73 786.71c-2-.23-4 2.41-4.39 5.9s.94 6.5 3 6.73 4-2.42 4.38-5.91S3435.76 786.93 3433.73 786.71z"></path><path fill="#00184c" d="M3532.55,674.87c-49.53-20.16-92.32-3.72-119.4,8.94s-3,63.43-3,63.43a58.87,58.87,0,0,1,7.92-23.93c25,17.32,111,.32,111,.32l14.2,79,7.05,20.65L3549,828.5c5.77,10,16.18,10.37,20.29-.38,12.89-33.71,11.38-92.89.75-104.79C3561.76,714,3582.07,695,3532.55,674.87Z"></path><path fill="#f19a6d" d="M3566.47,777.39c-14.31-2.37-28,8.54-30.67,24.38s6.84,30.61,21.15,33,28-8.54,30.67-24.38S3580.78,779.76,3566.47,777.39Z"></path><path fill="#38261f" d="M3560.46,794.3c-4.41,2.17-7.56,6.76-9.36,13.66l-.49,1.86,1.92,0c2.76,0,10.35.93,12.38,4.72l2.65-1.41c-2.49-4.66-9.58-5.87-13-6.19,1.6-5,4-8.36,7.25-10a11.66,11.66,0,0,1,8.83-.33l1.17-2.76A14.47,14.47,0,0,0,3560.46,794.3Z"></path><path fill="#00184c" d="M3522.49,705.93s-9,89.3,19.52,90.25l-10.15-76Z"></path><path fill="#38261f" d="M3460.65 801.88l-1-2.84c-3 1-18.24 6.48-19.9 12a3.67 3.67 0 00.66 3.44c4.37 5.63 13.49 9.45 13.87 9.6l1.15-2.77c-.09 0-8.77-3.67-12.65-8.67a.73.73 0 01-.16-.75C3443.55 808.93 3453.71 804.25 3460.65 801.88zM3444.39 855.78l-.19 3.28c2.11.12 4.14.17 6.09.17 19.38 0 30.94-5.43 31.47-5.68l-1.42-3C3480.2 850.65 3466.51 857 3444.39 855.78z"></path><path fill="#eb4334" d="M3039.28,2179.89H2990a29.18,29.18,0,0,0-28.63,23.53l-86.18,436.2h279l-86.19-436.2A29.18,29.18,0,0,0,3039.28,2179.89Z"></path><path fill="#f48400" d="M3039.28,2179.89H2990a29.18,29.18,0,0,0-28.63,23.53l-86.18,436.2h279l-86.19-436.2A29.18,29.18,0,0,0,3039.28,2179.89Z"></path><polygon fill="#fff" points="2941.7 2302.71 2927.48 2374.7 3101.74 2374.7 3087.52 2302.71 2941.7 2302.71"></polygon><polygon fill="#fff" points="2908.42 2471.18 2894.19 2543.18 3135.03 2543.18 3120.81 2471.18 2908.42 2471.18"></polygon><rect width="398.08" height="47.53" x="2809.12" y="2616.78" fill="#da5906" rx="17.27"></rect><path fill="#fa9100" d="M1731,1963.79a24.42,24.42,0,0,0-23.74-20H1480.37a24.44,24.44,0,0,0-23.74,20l-87,436.41c-3.08,15.49,8.4,30,23.75,30H1433c13.39,0,24.24-11.18,24.24-25s10.85-25,24.23-25h234.71c13.38,0,24.24,11.18,24.24,25s10.85,25,24.23,25h29.67c15.35,0,26.83-14.51,23.74-30Zm-76.76,78.94H1533.4c-15.23,0-27.58-12.72-27.58-28.41s12.35-28.41,27.58-28.41h120.88c15.23,0,27.57,12.72,27.57,28.41S1669.51,2042.73,1654.28,2042.73Z"></path><path fill="#fc0" d="M1745.61,1945.14a26.77,26.77,0,0,0-26.22-21.38H1468.78a26.77,26.77,0,0,0-26.22,21.38l-96.07,467.7a26.76,26.76,0,0,0,26.22,32.15h43.72a26.76,26.76,0,0,0,26.76-26.77,26.77,26.77,0,0,1,26.77-26.76h259.2a26.76,26.76,0,0,1,26.77,26.76A26.76,26.76,0,0,0,1782.7,2445h32.76a26.76,26.76,0,0,0,26.22-32.15Zm-84.77,84.6H1527.33a30.45,30.45,0,1,1,0-60.9h133.51a30.45,30.45,0,1,1,0,60.9Z"></path><path fill="#ffe991" d="M1760.34,2016.83c-79.47,145.89-208.85,307.24-410.83,381.33l-3,14.68a26.76,26.76,0,0,0,26.22,32.15h43.72a26.76,26.76,0,0,0,26.76-26.77,26.77,26.77,0,0,1,26.77-26.76h259.2a26.76,26.76,0,0,1,26.77,26.76A26.76,26.76,0,0,0,1782.7,2445h32.76a26.76,26.76,0,0,0,26.22-32.15Z"></path><path d="M1508.46 2171a35.71 35.71 0 00-12-7.33 45.51 45.51 0 00-30.21 0 35.69 35.69 0 00-12 7.33 33.61 33.61 0 00-7.9 11.11 36 36 0 000 28 33.51 33.51 0 007.9 11.16 35.51 35.51 0 0012 7.32 43.27 43.27 0 0015.18 2.59 42.55 42.55 0 0015-2.59 35.53 35.53 0 0012-7.32 33.65 33.65 0 007.9-11.16 36.16 36.16 0 000-28A33.76 33.76 0 001508.46 2171zm-13.21 32.17a15.16 15.16 0 01-3.21 5.27 14.27 14.27 0 01-4.79 3.3 15.63 15.63 0 01-11.77 0 14.27 14.27 0 01-4.79-3.3 15.16 15.16 0 01-3.21-5.27 22.09 22.09 0 010-14.07 15.16 15.16 0 013.21-5.27 14 14 0 014.79-3.3 15.63 15.63 0 0111.77 0 14 14 0 014.79 3.3 15.16 15.16 0 013.21 5.27 22.09 22.09 0 010 14.07zM1589.65 2171a35.71 35.71 0 00-12-7.33 45.48 45.48 0 00-30.2 0 35.64 35.64 0 00-12 7.33 33.76 33.76 0 00-7.9 11.11 36.16 36.16 0 000 28 33.65 33.65 0 007.9 11.16 35.46 35.46 0 0012 7.32 43.17 43.17 0 0015.17 2.59 42.51 42.51 0 0015-2.59 35.53 35.53 0 0012-7.32 33.51 33.51 0 007.9-11.16 36 36 0 000-28A33.61 33.61 0 001589.65 2171zm-13.21 32.17a15.16 15.16 0 01-3.21 5.27 14.27 14.27 0 01-4.79 3.3 15.63 15.63 0 01-11.77 0 14.27 14.27 0 01-4.79-3.3 15.16 15.16 0 01-3.21-5.27 22.09 22.09 0 010-14.07 15.16 15.16 0 013.21-5.27 14 14 0 014.79-3.3 15.63 15.63 0 0111.77 0 14 14 0 014.79 3.3 15.16 15.16 0 013.21 5.27 22.09 22.09 0 010 14.07z"></path><polygon points="1621.15 2180.08 1631.21 2180.08 1631.21 2169.83 1621.15 2180.08"></polygon><polygon points="1631.21 2195.78 1621.15 2195.78 1629.95 2204.74 1631.21 2203.54 1631.21 2195.78"></polygon><path d="M1657.11,2165.72a39.4,39.4,0,0,0-16.23-3.07h-32.27v67h22.6v-16.46h-10.06l8.8-8.47-8.8-9h10.06v-15.7h-10.06l10.06-10.25v10.25h8.23q4.69,0,6.94,2.1a8.46,8.46,0,0,1,0,11.49q-2.25,2.11-6.94,2.11h-8.23v17.43h9.67a38.9,38.9,0,0,0,16.23-3.12,24.39,24.39,0,0,0,10.58-8.76,23.79,23.79,0,0,0,3.73-13.4,23.1,23.1,0,0,0-14.31-22.21Z"></path><polygon points="1629.95 2204.74 1621.15 2213.21 1631.21 2213.21 1631.21 2206.03 1629.95 2204.74"></polygon><polygon points="1631.21 2203.54 1629.95 2204.74 1631.21 2206.03 1631.21 2203.54"></polygon><path d="M1728.63,2194.06a31.16,31.16,0,0,0-7.23-3.55,59.47,59.47,0,0,0-7.9-2.1c-2.65-.51-5.07-1-7.28-1.44a21.5,21.5,0,0,1-5.31-1.67,3,3,0,0,1-2-2.73,3.19,3.19,0,0,1,.81-2.11,5.57,5.57,0,0,1,2.73-1.53,18.73,18.73,0,0,1,5.17-.58,34.9,34.9,0,0,1,9.05,1.25,51.17,51.17,0,0,1,9.62,3.73l6.8-16.37a42.1,42.1,0,0,0-11.87-4.4,62.86,62.86,0,0,0-13.41-1.44q-10.33,0-17.28,3.06a24,24,0,0,0-10.44,8.19,19.71,19.71,0,0,0-3.49,11.35,18.12,18.12,0,0,0,2,9,16.62,16.62,0,0,0,5.31,5.79,30.72,30.72,0,0,0,7.28,3.54,65.94,65.94,0,0,0,7.9,2.16q3.93.81,7.23,1.53a21.6,21.6,0,0,1,5.31,1.77,3.19,3.19,0,0,1,2,2.87,2.6,2.6,0,0,1-.86,2,5.89,5.89,0,0,1-2.73,1.24,23.64,23.64,0,0,1-5.12.43,42,42,0,0,1-11.44-1.67,46.28,46.28,0,0,1-10.68-4.46l-7.27,16.47a45.86,45.86,0,0,0,12.92,5,68.32,68.32,0,0,0,16.28,1.92q10.44,0,17.33-3.12a24.13,24.13,0,0,0,10.39-8.23,19.51,19.51,0,0,0,3.49-11.25,17.64,17.64,0,0,0-2-8.81A16.72,16.72,0,0,0,1728.63,2194.06Z"></path><rect width="539.9" height="837.48" x="2606.31" y="1312.12" fill="#75a3db" rx="51.72"></rect><path fill="#fff" d="M3068.29,1360.89h-373.2A26.1,26.1,0,0,0,2669,1387v238.49a26.16,26.16,0,0,0,26.11,26.11h373.2a26.16,26.16,0,0,0,26.11-26.11V1387A26.1,26.1,0,0,0,3068.29,1360.89Z"></path><path fill="#b0cdf8" d="M3002.1 1507.92l-61 55.51a17.65 17.65 0 01-24.69-.93l-102-107.84a20.37 20.37 0 00-29-.63L2669 1566.74v58.75a26.19 26.19 0 0026.11 26.11h373.2a26.19 26.19 0 0026.11-26.11v-58.75l-58.61-58.1A24.48 24.48 0 003002.1 1507.92zM3012.68 1409.44a30.26 30.26 0 1030.26 30.25A30.25 30.25 0 003012.68 1409.44zM2874.72 1724.14H2691.61a22.59 22.59 0 100 45.17h183.11a22.59 22.59 0 100-45.17z"></path><path fill="#fff" d="M2829.61 1812.83h-152a8.58 8.58 0 100 17.15h152a8.58 8.58 0 000-17.15zM3004.1 1854.1H2677.6a8.57 8.57 0 100 17.14h326.5a8.57 8.57 0 100-17.14zM3004.1 1895.36H2677.6a8.57 8.57 0 100 17.14h326.5a8.57 8.57 0 100-17.14zM2940.05 1936.62H2677.6a8.58 8.58 0 100 17.15h262.45a8.58 8.58 0 100-17.15zM2980.45 2031H2783a27.71 27.71 0 000 55.42h197.49a27.71 27.71 0 100-55.42z"></path><path fill="#9a60a6" d="M1861.94,1872.77h638.21a35.77,35.77,0,0,1,35.77,35.77v205.3a35.77,35.77,0,0,1-35.77,35.77H1861.94a35.77,35.77,0,0,1-35.77-35.77v-205.3A35.76,35.76,0,0,1,1861.94,1872.77Z"></path><rect width="7.34" height="222.47" x="2111.95" y="1901.92" fill="#fff"></rect><path fill="#fff" d="M2338.69,1923.71h-143a22.33,22.33,0,0,0,0,44.65h143a22.33,22.33,0,1,0,0-44.65Z"></path><rect width="196.29" height="13.13" x="2173.37" y="2013.15" fill="#fff"></rect><rect width="318.58" height="13.13" x="2173.37" y="2051.5" fill="#fff"></rect><rect width="184.12" height="184.12" x="1870.14" y="1924.18" fill="#fff" rx="18.76"></rect><path fill="#62a4a1" d="M1962.21,1961.81a54.43,54.43,0,1,0,54.42,54.43h-54.42Z"></path><path fill="#62c0bd" d="M1962.21,1952v64.23h64.22A64.22,64.22,0,0,0,1962.21,1952Z"></path><rect width="376.99" height="314.11" x="1552.17" y="1344.87" fill="#75a3db" rx="34.48"></rect><path fill="#b0cdf8" d="M1744.49,1385.43a64,64,0,1,0,63.92,63.92A63.95,63.95,0,0,0,1744.49,1385.43Z"></path><path fill="#f5f7f9" d="M1744.5 1404.09a21 21 0 1021 21A21 21 0 001744.5 1404.09zM1744.49 1461.8a45.62 45.62 0 00-44 33.86 63.83 63.83 0 0088.17 0A45.76 45.76 0 001744.49 1461.8z"></path><path fill="#fc0" d="M1643.32 1576.6l-10.87-1.58a2.8 2.8 0 01-2.12-1.54l-4.86-9.85a2.81 2.81 0 00-5 0l-4.86 9.85a2.81 2.81 0 01-2.11 1.54l-10.87 1.58a2.81 2.81 0 00-1.56 4.79l7.86 7.67a2.76 2.76 0 01.81 2.48l-1.85 10.83a2.8 2.8 0 004.07 3l9.72-5.11a2.82 2.82 0 012.62 0l9.72 5.11a2.81 2.81 0 004.08-3l-1.86-10.83a2.82 2.82 0 01.81-2.48l7.87-7.67A2.81 2.81 0 001643.32 1576.6zM1705.32 1576.6l-10.87-1.58a2.82 2.82 0 01-2.12-1.54l-4.86-9.85a2.8 2.8 0 00-5 0l-4.87 9.85a2.81 2.81 0 01-2.11 1.54l-10.87 1.58a2.81 2.81 0 00-1.56 4.79l7.87 7.67a2.78 2.78 0 01.8 2.48l-1.85 10.83a2.8 2.8 0 004.07 3l9.73-5.11a2.8 2.8 0 012.61 0l9.72 5.11a2.81 2.81 0 004.08-3l-1.86-10.83a2.82 2.82 0 01.81-2.48l7.87-7.67A2.81 2.81 0 001705.32 1576.6zM1765 1576.6l-10.87-1.58a2.8 2.8 0 01-2.12-1.54l-4.86-9.85a2.81 2.81 0 00-5 0l-4.86 9.85a2.8 2.8 0 01-2.12 1.54l-10.87 1.58a2.81 2.81 0 00-1.55 4.79l7.86 7.67a2.79 2.79 0 01.81 2.48l-1.86 10.83a2.81 2.81 0 004.08 3l9.72-5.11a2.82 2.82 0 012.62 0l9.72 5.11a2.81 2.81 0 004.08-3l-1.86-10.83a2.79 2.79 0 01.81-2.48l7.86-7.67A2.81 2.81 0 001765 1576.6zM1827 1576.6l-10.87-1.58a2.8 2.8 0 01-2.12-1.54l-4.86-9.85a2.81 2.81 0 00-5 0l-4.86 9.85a2.81 2.81 0 01-2.11 1.54l-10.87 1.58a2.81 2.81 0 00-1.56 4.79l7.86 7.67a2.76 2.76 0 01.81 2.48l-1.85 10.83a2.8 2.8 0 004.07 3l9.73-5.11a2.8 2.8 0 012.61 0l9.72 5.11a2.81 2.81 0 004.08-3l-1.86-10.83a2.82 2.82 0 01.81-2.48l7.87-7.67A2.81 2.81 0 001827 1576.6zM1886.46 1576.6l-10.87-1.58a2.82 2.82 0 01-2.12-1.54l-4.86-9.85a2.81 2.81 0 00-5 0l-4.86 9.85a2.81 2.81 0 01-2.11 1.54l-10.87 1.58a2.81 2.81 0 00-1.56 4.79l7.87 7.67a2.78 2.78 0 01.8 2.48l-1.85 10.83a2.8 2.8 0 004.07 3l9.73-5.11a2.8 2.8 0 012.61 0l9.72 5.11a2.81 2.81 0 004.08-3l-1.86-10.83a2.82 2.82 0 01.81-2.48l7.87-7.67A2.81 2.81 0 001886.46 1576.6z"></path><path fill="#e84b4b" d="M2868.75,649.67l-38.61-5.16a211.7,211.7,0,0,0-22.83-86l31-23.64a8.87,8.87,0,0,0,1.66-12.44l-36.64-48a8.87,8.87,0,0,0-12.44-1.66l-31,23.64A211.72,211.72,0,0,0,2683,451.81l5.17-38.6a8.88,8.88,0,0,0-7.62-10l-59.83-8a8.87,8.87,0,0,0-10,7.62l-5.17,38.61a211.62,211.62,0,0,0-86,22.83l-23.64-30.95a8.89,8.89,0,0,0-12.45-1.67l-48,36.64a8.89,8.89,0,0,0-1.66,12.45l23.64,30.95a211.61,211.61,0,0,0-44.64,76.94l-38.61-5.17a8.87,8.87,0,0,0-10,7.62l-8,59.83a8.88,8.88,0,0,0,7.62,10l38.6,5.17a211.47,211.47,0,0,0,22.84,86l-31,23.64a8.89,8.89,0,0,0-1.66,12.45l36.64,48a8.87,8.87,0,0,0,12.44,1.67l30.95-23.64a211.69,211.69,0,0,0,76.94,44.64l-5.17,38.61a8.87,8.87,0,0,0,7.62,10l59.83,8a8.88,8.88,0,0,0,10-7.62l5.16-38.6a211.47,211.47,0,0,0,86-22.84l23.65,31a8.87,8.87,0,0,0,12.44,1.66l48-36.64a8.88,8.88,0,0,0,1.66-12.44l-23.64-31a211.72,211.72,0,0,0,44.65-76.94l38.6,5.17a8.88,8.88,0,0,0,10-7.62l8-59.83A8.89,8.89,0,0,0,2868.75,649.67Zm-123.56,22.87c-9.52,71.06-75.07,121.14-146.14,111.62S2477.91,709.09,2487.43,638s75.07-121.14,146.13-111.63S2754.7,601.47,2745.19,672.54Z"></path><path fill="#ffab00" d="M3163.93,480.8a5.19,5.19,0,0,0-6.54-3.32l-21.66,7.07a123.76,123.76,0,0,0-33.84-39.5l10.3-20.31a5.19,5.19,0,0,0-2.28-7l-31.47-16a5.2,5.2,0,0,0-7,2.28l-10.31,20.32a123.61,123.61,0,0,0-51.87-4l-7.07-21.66a5.2,5.2,0,0,0-6.55-3.32l-33.56,11a5.2,5.2,0,0,0-3.32,6.55l7.08,21.65a123.72,123.72,0,0,0-39.51,33.85L2906,458.1a5.2,5.2,0,0,0-7,2.28l-16,31.48a5.19,5.19,0,0,0,2.27,7l20.32,10.31a123.58,123.58,0,0,0-4,51.87L2880,568.09a5.19,5.19,0,0,0-3.33,6.55l11,33.55a5.19,5.19,0,0,0,6.54,3.33l21.66-7.08A123.69,123.69,0,0,0,2949.71,644l-10.31,20.31a5.21,5.21,0,0,0,2.28,7l31.48,16a5.19,5.19,0,0,0,7-2.28l10.31-20.31a123.77,123.77,0,0,0,51.87,4l7.07,21.65a5.19,5.19,0,0,0,6.55,3.32l33.55-11a5.19,5.19,0,0,0,3.33-6.55l-7.08-21.65a123.72,123.72,0,0,0,39.51-33.85l20.31,10.31a5.19,5.19,0,0,0,7-2.28l16-31.48a5.18,5.18,0,0,0-2.28-7l-20.31-10.31a123.61,123.61,0,0,0,4-51.87l21.65-7.07a5.2,5.2,0,0,0,3.33-6.55Zm-70.32,98.11a76,76,0,1,1-33.39-102.22A76.13,76.13,0,0,1,3093.61,578.91Z"></path><rect width="246.13" height="190.88" x="1788.61" y="1031.07" fill="#ea7288" rx="34.12"></rect><polygon fill="#f5f7f9" points="1827.99 1136.99 1877.76 1162.61 1877.76 1148.65 1842.03 1130.75 1877.76 1113.35 1877.76 1099.48 1827.99 1124.72 1827.99 1136.99"></polygon><polygon fill="#f5f7f9" points="1890.19 1167.28 1903.2 1167.28 1933.17 1085.74 1920.26 1085.74 1890.19 1167.28"></polygon><polygon fill="#f5f7f9" points="1945.59 1113.33 1981.31 1131.24 1945.59 1148.64 1945.59 1162.61 1995.36 1137.36 1995.36 1125.09 1945.59 1099.48 1945.59 1113.33"></polygon></g></svg>